<svg width="173" height="64" viewBox="0 0 173 64" fill="none" xmlns="http://www.w3.org/2000/svg">
<g clip-path="url(#clip0_1_1320)">
<path d="M38.2974 6.81601L39.105 32.5674L60.5598 19.0106L38.2974 6.81601Z" fill="#333333"/>
<path d="M60.4084 45.9741V18.9098L29.665 38.4V64H30.6999" fill="#494949"/>
<path d="M25.7023 57.184L24.8947 31.432L3.43994 44.9894L25.7023 57.184Z" fill="#0CA579"/>
<path d="M3.59131 18.0259V45.0902L34.3347 25.6253V0H33.2998" fill="#00EA90"/>
</g>
<path d="M100.52 45H93.566L86.498 23.986C86.5487 24.3407 86.574 24.6193 86.574 24.822C86.7767 26.5953 86.9287 28.204 87.03 29.648C87.1567 31.0667 87.22 32.726 87.22 34.626V45H82.356V18.704H89.196L96.378 39.756C95.8967 36.4627 95.656 33.3467 95.656 30.408V18.704H100.52V45ZM120.149 39.68C120.149 40.3893 120.238 40.9087 120.415 41.238C120.618 41.5673 120.947 41.8333 121.403 42.036L120.301 45.532C119.187 45.4053 118.275 45.1267 117.565 44.696C116.881 44.2653 116.349 43.594 115.969 42.682C114.728 44.6327 112.917 45.608 110.535 45.608C108.737 45.608 107.293 45.038 106.203 43.898C105.139 42.7327 104.607 41.2253 104.607 39.376C104.607 37.1973 105.342 35.5253 106.811 34.36C108.281 33.1947 110.396 32.612 113.157 32.612H114.943V31.472C114.943 30.2307 114.703 29.3693 114.221 28.888C113.765 28.3813 112.993 28.128 111.903 28.128C110.586 28.128 108.977 28.4827 107.077 29.192L105.899 25.734C107.014 25.2527 108.167 24.8853 109.357 24.632C110.573 24.3787 111.713 24.252 112.777 24.252C115.285 24.252 117.135 24.8347 118.325 26C119.541 27.1653 120.149 28.9007 120.149 31.206V39.68ZM112.055 41.808C113.297 41.808 114.259 41.0733 114.943 39.604V35.614H113.689C112.397 35.614 111.435 35.8927 110.801 36.45C110.168 36.982 109.851 37.8053 109.851 38.92C109.851 39.8573 110.041 40.5793 110.421 41.086C110.801 41.5673 111.346 41.808 112.055 41.808ZM145.385 24.252C146.829 24.252 147.994 24.784 148.881 25.848C149.768 26.912 150.211 28.3433 150.211 30.142V45H144.967V30.864C144.967 29.116 144.448 28.242 143.409 28.242C142.852 28.242 142.332 28.47 141.851 28.926C141.37 29.3567 140.901 30.0153 140.445 30.902V45H135.239V30.864C135.239 29.116 134.72 28.242 133.681 28.242C133.098 28.242 132.566 28.47 132.085 28.926C131.604 29.3567 131.148 30.0153 130.717 30.902V45H125.473V24.86H130.071L130.451 27.368C131.135 26.3547 131.895 25.582 132.731 25.05C133.592 24.518 134.568 24.252 135.657 24.252C136.696 24.252 137.582 24.5433 138.317 25.126C139.077 25.6833 139.634 26.494 139.989 27.558C141.484 25.354 143.282 24.252 145.385 24.252ZM171.098 34.474C171.098 35.2593 171.06 35.9433 170.984 36.526H159.66C159.812 38.426 160.23 39.756 160.914 40.516C161.598 41.276 162.548 41.656 163.764 41.656C164.574 41.656 165.322 41.5293 166.006 41.276C166.715 40.9973 167.462 40.554 168.248 39.946L170.414 42.91C168.362 44.7087 166.018 45.608 163.384 45.608C160.445 45.608 158.203 44.6833 156.658 42.834C155.112 40.9593 154.34 38.3627 154.34 35.044C154.34 31.8013 155.074 29.192 156.544 27.216C158.038 25.24 160.128 24.252 162.814 24.252C165.423 24.252 167.45 25.1387 168.894 26.912C170.363 28.66 171.098 31.1807 171.098 34.474ZM165.93 32.954C165.93 31.2567 165.689 29.99 165.208 29.154C164.726 28.2927 163.954 27.862 162.89 27.862C161.902 27.862 161.142 28.2673 160.61 29.078C160.078 29.8887 159.761 31.2693 159.66 33.22H165.93V32.954Z" fill="white"/>
<path d="M100.52 45H93.566L86.498 23.986C86.5487 24.3407 86.574 24.6193 86.574 24.822C86.7767 26.5953 86.9287 28.204 87.03 29.648C87.1567 31.0667 87.22 32.726 87.22 34.626V45H82.356V18.704H89.196L96.378 39.756C95.8967 36.4627 95.656 33.3467 95.656 30.408V18.704H100.52V45ZM120.149 39.68C120.149 40.3893 120.238 40.9087 120.415 41.238C120.618 41.5673 120.947 41.8333 121.403 42.036L120.301 45.532C119.187 45.4053 118.275 45.1267 117.565 44.696C116.881 44.2653 116.349 43.594 115.969 42.682C114.728 44.6327 112.917 45.608 110.535 45.608C108.737 45.608 107.293 45.038 106.203 43.898C105.139 42.7327 104.607 41.2253 104.607 39.376C104.607 37.1973 105.342 35.5253 106.811 34.36C108.281 33.1947 110.396 32.612 113.157 32.612H114.943V31.472C114.943 30.2307 114.703 29.3693 114.221 28.888C113.765 28.3813 112.993 28.128 111.903 28.128C110.586 28.128 108.977 28.4827 107.077 29.192L105.899 25.734C107.014 25.2527 108.167 24.8853 109.357 24.632C110.573 24.3787 111.713 24.252 112.777 24.252C115.285 24.252 117.135 24.8347 118.325 26C119.541 27.1653 120.149 28.9007 120.149 31.206V39.68ZM112.055 41.808C113.297 41.808 114.259 41.0733 114.943 39.604V35.614H113.689C112.397 35.614 111.435 35.8927 110.801 36.45C110.168 36.982 109.851 37.8053 109.851 38.92C109.851 39.8573 110.041 40.5793 110.421 41.086C110.801 41.5673 111.346 41.808 112.055 41.808ZM145.385 24.252C146.829 24.252 147.994 24.784 148.881 25.848C149.768 26.912 150.211 28.3433 150.211 30.142V45H144.967V30.864C144.967 29.116 144.448 28.242 143.409 28.242C142.852 28.242 142.332 28.47 141.851 28.926C141.37 29.3567 140.901 30.0153 140.445 30.902V45H135.239V30.864C135.239 29.116 134.72 28.242 133.681 28.242C133.098 28.242 132.566 28.47 132.085 28.926C131.604 29.3567 131.148 30.0153 130.717 30.902V45H125.473V24.86H130.071L130.451 27.368C131.135 26.3547 131.895 25.582 132.731 25.05C133.592 24.518 134.568 24.252 135.657 24.252C136.696 24.252 137.582 24.5433 138.317 25.126C139.077 25.6833 139.634 26.494 139.989 27.558C141.484 25.354 143.282 24.252 145.385 24.252ZM171.098 34.474C171.098 35.2593 171.06 35.9433 170.984 36.526H159.66C159.812 38.426 160.23 39.756 160.914 40.516C161.598 41.276 162.548 41.656 163.764 41.656C164.574 41.656 165.322 41.5293 166.006 41.276C166.715 40.9973 167.462 40.554 168.248 39.946L170.414 42.91C168.362 44.7087 166.018 45.608 163.384 45.608C160.445 45.608 158.203 44.6833 156.658 42.834C155.112 40.9593 154.34 38.3627 154.34 35.044C154.34 31.8013 155.074 29.192 156.544 27.216C158.038 25.24 160.128 24.252 162.814 24.252C165.423 24.252 167.45 25.1387 168.894 26.912C170.363 28.66 171.098 31.1807 171.098 34.474ZM165.93 32.954C165.93 31.2567 165.689 29.99 165.208 29.154C164.726 28.2927 163.954 27.862 162.89 27.862C161.902 27.862 161.142 28.2673 160.61 29.078C160.078 29.8887 159.761 31.2693 159.66 33.22H165.93V32.954Z" fill="url(#paint0_linear_1_1320)"/>
<defs>
<linearGradient id="paint0_linear_1_1320" x1="126.5" y1="21" x2="126.5" y2="43" gradientUnits="userSpaceOnUse">
<stop stop-color="white"/>
<stop offset="1" stop-color="white" stop-opacity="0"/>
</linearGradient>
<clipPath id="clip0_1_1320">
<rect width="64" height="64" fill="white"/>
</clipPath>
</defs>
</svg>
