<svg width="20" height="20" viewBox="0 0 20 20" fill="none" xmlns="http://www.w3.org/2000/svg">
<path fill-rule="evenodd" clip-rule="evenodd" d="M6.14243 1.20155C6.15406 1.21527 6.16375 1.2267 6.17144 1.23549C6.37095 1.46351 6.59358 1.70046 6.83582 1.95828C6.94648 2.07607 7.06124 2.19822 7.17976 2.32586C7.5462 2.72048 7.93379 3.1525 8.26816 3.59832C8.73049 4.21476 8.89138 4.82011 8.77865 5.38391C8.67298 5.91243 8.35214 6.25493 8.1964 6.41068C8.16752 6.43956 8.1364 6.46609 8.10336 6.49003C8.09729 6.49649 8.07797 6.51692 8.04418 6.5596C7.98473 6.63469 7.91611 6.73193 7.82644 6.86034C7.8181 6.87229 7.80957 6.88452 7.80085 6.89703C7.64039 7.12714 7.41693 7.44762 7.16635 7.69819C6.84563 8.01892 6.82661 8.20279 6.82602 8.24438C6.82542 8.28695 6.84201 8.34145 6.90884 8.40828C6.91436 8.4138 6.91979 8.4194 6.92514 8.42508L11.0453 12.8028C11.3042 13.0779 11.4832 13.0956 11.5551 13.0942C11.6041 13.0932 11.6498 13.0818 11.6899 13.0645C11.7099 13.0559 11.7267 13.0466 11.7398 13.0381C11.7462 13.0339 11.7513 13.0303 11.7549 13.0275C11.7584 13.0248 11.7601 13.0233 11.7601 13.0233L11.76 13.0233C11.9272 12.8683 12.1747 12.6172 12.4702 12.3175C12.6332 12.1521 12.8109 11.9719 12.9976 11.7849C13.5998 11.0466 14.2757 10.6802 15.0101 10.7618C15.6435 10.8322 16.1255 11.2345 16.3666 11.4358C16.3729 11.4411 16.3791 11.4462 16.385 11.4512C16.6793 11.6964 17.1337 12.1527 17.5635 12.593C17.7368 12.7706 17.9084 12.9479 18.0712 13.1162C18.33 13.3836 18.5669 13.6285 18.7543 13.816C19.1936 14.2553 19.4025 14.772 19.2771 15.3151C19.1836 15.7197 18.9127 16.0212 18.8112 16.1342C18.8027 16.1437 18.7954 16.1518 18.7895 16.1585C18.4756 16.5172 17.945 17.0874 17.3585 17.6496C16.7825 18.2017 16.1086 18.789 15.5154 19.1449C14.7006 19.6338 13.6982 19.7736 12.894 19.737C12.4859 19.7185 12.0895 19.6531 11.7558 19.5401C11.5893 19.4836 11.4186 19.4087 11.2648 19.3078C11.1787 19.2512 11.0813 19.1756 10.9922 19.0765C9.49279 18.2201 7.50717 16.5359 5.69233 14.7523C3.80973 12.9022 2.02334 10.8586 1.07563 9.3693C-0.527268 6.85047 -0.0286987 4.58992 0.557252 3.6524C0.573108 3.62703 0.590424 3.6026 0.609112 3.57924C0.965959 3.13318 1.92915 1.99501 2.98369 0.940466C3.31864 0.605524 3.68745 0.381024 4.08924 0.29544C4.49674 0.20864 4.86388 0.280609 5.16174 0.412122C5.65978 0.632025 6.01582 1.05215 6.14243 1.20155ZM4.41113 1.8066C4.37032 1.8153 4.2563 1.85291 4.07622 2.03299C3.10129 3.00793 2.20185 4.06563 1.84737 4.50491C1.57208 4.98558 1.12884 6.57505 2.37914 8.53979C3.23399 9.88314 4.92401 11.8309 6.77531 13.6503C8.63291 15.4759 10.5655 17.0857 11.8827 17.8042C11.9849 17.86 12.0727 17.9378 12.14 18.0314C12.1629 18.043 12.1992 18.0589 12.2515 18.0767C12.4168 18.1327 12.6642 18.1799 12.9642 18.1935C13.5763 18.2214 14.2478 18.1036 14.7205 17.82C15.1574 17.5579 15.7281 17.0722 16.2894 16.5342C16.8402 16.0062 17.3397 15.4691 17.6267 15.1411L17.6399 15.126C17.6901 15.0686 17.7198 15.0347 17.7441 15.0021C17.7271 14.979 17.7011 14.9478 17.6618 14.9085C17.4669 14.7135 17.2127 14.4509 16.9454 14.1747C16.7843 14.0082 16.6184 13.8367 16.4578 13.6722C16.012 13.2155 15.6167 12.8221 15.3959 12.6381C15.1153 12.4043 14.9621 12.3111 14.8395 12.2974C14.839 12.2974 14.8385 12.2973 14.8379 12.2972C14.8051 12.2934 14.5896 12.268 14.1761 12.7848C14.1583 12.807 14.1393 12.8283 14.1191 12.8485C13.9504 13.0172 13.7778 13.1922 13.6121 13.3601C13.2944 13.6823 13.0021 13.9787 12.8106 14.1562C12.5519 14.3961 12.1191 14.6282 11.5863 14.6389C11.0203 14.6504 10.4369 14.4106 9.92019 13.8617L5.80702 9.49146C5.53386 9.21453 5.27321 8.78315 5.28111 8.22262C5.28911 7.65474 5.57051 7.10898 6.07383 6.60567C6.22165 6.45784 6.37387 6.24181 6.55966 5.97575C6.64381 5.85524 6.73935 5.71858 6.8328 5.60055C6.90178 5.51342 7.00586 5.38851 7.13802 5.28288C7.21596 5.19949 7.25223 5.13773 7.26357 5.08098C7.26941 5.0518 7.30155 4.88461 7.03211 4.52536C6.74844 4.14714 6.40643 3.76369 6.04754 3.37719C5.94447 3.26618 5.83841 3.15329 5.73211 3.04013C5.48014 2.77191 5.22681 2.50225 5.00866 2.25292L5.00864 2.25291C4.99296 2.23499 4.97791 2.21758 4.96315 2.20051C4.90199 2.12978 4.84603 2.06505 4.7725 1.99525C4.68332 1.9106 4.60384 1.85476 4.53767 1.82555C4.48145 1.80072 4.44622 1.79913 4.41113 1.8066ZM12.109 18.0135C12.1091 18.0135 12.1102 18.0143 12.1123 18.0159C12.11 18.0143 12.109 18.0135 12.109 18.0135Z" fill="#00EA90"/>
</svg>
